HIERARCHY
ROOT Hips
{
	OFFSET 0.000000 0.000000 0.000000
	CHANNELS 6 Xposition Yposition Zposition Zrotation Yrotation Xrotation 
	JOINT LHipJoint
	{
		OFFSET 0.000000 0.000000 0.000000
		CHANNELS 3 Zrotation Yrotation Xrotation
		JOINT LeftUpLeg
		{
			OFFSET 1.363060 -1.794630 0.839290
			CHANNELS 3 Zrotation Yrotation Xrotation
			JOINT LeftLeg
			{
				OFFSET 2.448110 -6.726130 0.000000
				CHANNELS 3 Zrotation Yrotation Xrotation
				JOINT LeftFoot
				{
					OFFSET 2.562200 -7.039590 0.000000
					CHANNELS 3 Zrotation Yrotation Xrotation
					JOINT LeftToeBase
					{
						OFFSET 0.157640 -0.433110 2.322550
						CHANNELS 3 Zrotation Yrotation Xrotation
						End Site
						{
							OFFSET 0.000000 0.000000 0.000000
						}
					}
				}
			}
		}
	}
	JOINT RHipJoint
	{
		OFFSET 0.000000 0.000000 0.000000
		CHANNELS 3 Zrotation Yrotation Xrotation
		JOINT RightUpLeg
		{
			OFFSET -1.305520 -1.794630 0.839290
			CHANNELS 3 Zrotation Yrotation Xrotation
			JOINT RightLeg
			{
				OFFSET -2.542530 -6.985550 0.000000
				CHANNELS 3 Zrotation Yrotation Xrotation
				JOINT RightFoot
				{
					OFFSET -2.568260 -7.056230 0.000000
					CHANNELS 3 Zrotation Yrotation Xrotation
					JOINT RightToeBase
					{
						OFFSET -0.164730 -0.452590 2.363150
						CHANNELS 3 Zrotation Yrotation Xrotation
						End Site
						{
							OFFSET 0.000000 0.000000 0.000000
						}
					}
				}
			}
		}
	}
	JOINT LowerBack
	{
		OFFSET 0.000000 0.000000 0.000000
		CHANNELS 3 Zrotation Yrotation Xrotation
		JOINT Spine
		{
			OFFSET 0.028270 2.035590 -0.193380
			CHANNELS 3 Zrotation Yrotation Xrotation
			JOINT Spine1
			{
				OFFSET 0.056720 2.048850 -0.042750
				CHANNELS 3 Zrotation Yrotation Xrotation
				JOINT Neck
				{
					OFFSET 0.000000 0.000000 0.000000
					CHANNELS 3 Zrotation Yrotation Xrotation
					JOINT Neck1
					{
						OFFSET -0.054170 1.746240 0.172020
						CHANNELS 3 Zrotation Yrotation Xrotation
						JOINT Head
						{
							OFFSET 0.104070 1.761360 -0.123970
							CHANNELS 3 Zrotation Yrotation Xrotation
							End Site
							{
								OFFSET 0.000000 0.000000 0.000000
							}
						}
					}
				}
				JOINT LeftShoulder
				{
					OFFSET 0.000000 0.000000 0.000000
					CHANNELS 3 Zrotation Yrotation Xrotation
					JOINT LeftArm
					{
						OFFSET 3.362410 1.200890 -0.311210
						CHANNELS 3 Zrotation Yrotation Xrotation
						JOINT LeftForeArm
						{
							OFFSET 4.983000 -0.000000 -0.000000
							CHANNELS 3 Zrotation Yrotation Xrotation
							JOINT LeftHand
							{
								OFFSET 3.483560 -0.000000 -0.000000
								CHANNELS 3 Zrotation Yrotation Xrotation
								JOINT LeftFingerBase
								{
									OFFSET 0.000000 0.000000 0.000000
									CHANNELS 3 Zrotation Yrotation Xrotation
									JOINT LeftHandIndex1
									{
										OFFSET 0.715260 -0.000000 -0.000000
										CHANNELS 3 Zrotation Yrotation Xrotation
										End Site
										{
											OFFSET 0.000000 0.000000 0.000000
										}
									}
								}
								JOINT LThumb
								{
									OFFSET 0.000000 0.000000 0.000000
									CHANNELS 3 Zrotation Yrotation Xrotation
									End Site
									{
										OFFSET 0.000000 0.000000 0.000000
									}
								}
							}
						}
					}
				}
				JOINT RightShoulder
				{
					OFFSET 0.000000 0.000000 0.000000
					CHANNELS 3 Zrotation Yrotation Xrotation
					JOINT RightArm
					{
						OFFSET -3.136600 1.374050 -0.404650
						CHANNELS 3 Zrotation Yrotation Xrotation
						JOINT RightForeArm
						{
							OFFSET -5.241900 -0.000000 -0.000000
							CHANNELS 3 Zrotation Yrotation Xrotation
							JOINT RightHand
							{
								OFFSET -3.444170 -0.000000 -0.000000
								CHANNELS 3 Zrotation Yrotation Xrotation
								JOINT RightFingerBase
								{
									OFFSET 0.000000 0.000000 0.000000
									CHANNELS 3 Zrotation Yrotation Xrotation
									JOINT RightHandIndex1
									{
										OFFSET -0.622530 -0.000000 -0.000000
										CHANNELS 3 Zrotation Yrotation Xrotation
										End Site
										{
											OFFSET 0.000000 0.000000 0.000000
										}
									}
								}
								JOINT RThumb
								{
									OFFSET 0.000000 0.000000 0.000000
									CHANNELS 3 Zrotation Yrotation Xrotation
									End Site
									{
										OFFSET 0.000000 0.000000 0.000000
									}
								}
							}
						}
					}
				}
			}
		}
	}
}
MOTION
Frames: 12
Frame Time: 0.008333
22.433629 15.977678 12.298674 20.005560 -85.205106 -52.947897 -14.996277 -12.972897 9.514970 12.652427 -11.149144 -30.812660 -12.681136 -22.021381 51.166343 15.572825 25.030252 67.983207 0.366300 3.888000 10.761700 22.609263 -5.910988 -11.832742 -20.650019 -5.454071 -24.839481 16.675447 -2.680526 33.424477 6.079306 -58.052314 33.709629 -6.404100 -14.808800 46.582600 4.504023 1.434310 24.087989 0.359494 0.601549 1.329841 -4.092900 1.163809 3.879332 4.445746 10.397511 0.642098 3.858988 12.679011 11.494536 -4.334800 7.099400 4.010600 0.138496 -7.045301 0.865215 -80.347971 -15.235891 56.394171 36.092095 -37.598599 -27.007588 -0.489896 -8.875296 18.028642 1.029184 25.170220 -0.575900 -7.125000 0.000000 0.000000 -38.256700 59.468400 -14.831800 4.148796 8.268488 0.625048 79.249989 14.317800 34.341096 -29.392490 34.813003 -23.425194 -2.855385 -1.004856 18.004836 2.307136 18.894043 1.655300 7.125000 0.000000 0.000000 20.900100 -10.204800 18.151900 
22.431017 15.974941 12.302032 20.304669 -85.099790 -53.176804 -15.131378 -12.974280 9.510443 12.643871 -11.238002 -30.883307 -12.633198 -22.082604 51.167625 15.545731 24.807887 68.001551 0.308300 3.569600 9.868800 22.601353 -5.814964 -11.815753 -20.750824 -5.409681 -24.892834 16.786970 -2.303856 33.739615 5.660608 -58.054847 34.160151 -6.288000 -14.701700 46.126800 4.509138 1.415274 24.024429 0.329059 0.510107 1.289402 -4.272602 1.170220 3.934066 4.449824 10.375302 0.507275 3.902121 12.643369 11.562079 -4.229900 7.085100 4.092000 0.122672 -7.016693 0.851207 -80.188507 -15.215203 56.384860 36.221325 -37.682699 -27.171959 -0.423546 -8.947654 18.123300 0.699631 25.390279 -0.818800 -7.125000 0.000000 0.000000 -38.933700 59.573000 -15.245400 4.077916 8.267167 0.601859 79.420360 14.340183 34.373029 -29.443604 34.845549 -23.447602 -2.800991 -1.062364 17.793516 2.094730 19.087672 1.573600 7.125000 0.000000 0.000000 20.717200 -9.986600 18.066900 
22.436366 15.980663 12.301161 20.434909 -84.975442 -53.337597 -14.641926 -13.169679 9.976487 11.631958 -11.963079 -31.162969 -11.355753 -22.376668 51.208764 15.621936 24.972363 67.765464 0.327500 3.678300 10.173300 22.573544 -6.272417 -12.079173 -20.823471 -5.501995 -24.864291 16.348657 -3.549206 32.838387 6.750456 -57.618335 33.093824 -6.577300 -14.965400 47.256900 4.554050 1.423491 24.080584 0.250461 0.448938 1.288156 -4.322651 1.219512 3.919557 4.385028 10.291386 0.552469 3.916319 12.526101 11.514168 -4.183400 7.016300 3.995600 0.135396 -6.994806 0.851806 -80.233568 -15.232051 56.534033 36.374613 -37.764573 -27.330322 -0.345087 -9.079831 17.974258 0.326836 25.874939 -1.093000 -7.125000 0.000000 0.000000 -39.998000 59.920200 -16.086300 4.037098 8.263596 0.601757 79.482168 14.283561 34.256691 -29.499919 34.887488 -23.499077 -2.740475 -1.086821 17.882670 1.793835 19.154421 1.446500 7.125000 0.000000 0.000000 20.490700 -9.902800 17.876500 
22.460497 16.004545 12.295813 20.154055 -85.241426 -53.119709 -14.276767 -13.415070 10.349825 11.401438 -12.023520 -31.297243 -10.908840 -22.593686 51.226288 15.679823 25.062334 67.733029 0.373500 3.925600 10.867300 22.486924 -6.806321 -12.509864 -20.668726 -4.867387 -24.430892 15.800299 -5.343234 31.231832 8.803940 -57.114877 31.058479 -7.043000 -15.368000 49.036800 4.727264 1.488790 24.106479 0.290214 0.575495 1.332228 -4.238424 1.300809 4.010319 4.244328 10.117347 0.306540 3.890254 12.297255 11.567142 -4.138900 6.900300 4.113700 0.153916 -6.980457 0.811196 -80.397056 -15.300477 56.635615 36.362261 -37.738768 -27.285991 -0.363849 -9.074451 18.047383 0.350862 25.893064 -1.075000 -7.125000 0.000000 0.000000 -39.985100 59.940500 -16.099800 4.053500 8.303048 0.580142 79.352665 14.317451 34.088027 -29.462650 34.857803 -23.476608 -2.727127 -1.101724 18.085888 1.646102 19.203259 1.389000 7.125000 0.000000 0.000000 20.382600 -9.833700 17.798600 
22.487116 16.030418 12.294444 20.063465 -85.548300 -53.009875 -14.466104 -13.418593 10.380430 12.006033 -11.588173 -31.334199 -11.512375 -22.571932 51.217687 15.627687 24.933290 67.867526 0.355300 3.829600 10.597800 22.348249 -6.991581 -12.787326 -20.548701 -3.832002 -23.978879 15.696874 -6.144994 30.315868 9.987279 -57.070241 29.778401 -7.241800 -15.532200 49.782900 4.813094 1.501921 24.076958 0.384174 0.652720 1.318308 -4.198296 1.327207 4.035173 4.169455 10.081812 0.191607 3.893008 12.249550 11.612461 -4.099500 6.877300 4.193200 0.154188 -6.951354 0.787231 -80.449676 -15.245027 56.494179 36.367336 -37.739359 -27.291355 -0.398749 -9.036294 18.238797 0.448704 25.796675 -1.007300 -7.125000 0.000000 0.000000 -39.739000 59.868400 -15.911100 4.033082 8.318269 0.563598 79.337895 14.298861 34.214614 -29.500488 34.888867 -23.512496 -2.713771 -1.090055 18.110541 1.604088 19.158175 1.366700 7.125000 0.000000 0.000000 20.356300 -9.887400 17.748500 
22.456765 16.000441 12.297430 19.860465 -85.407230 -52.769320 -15.075782 -12.975684 9.577125 12.907736 -10.941275 -30.909425 -12.769883 -22.057493 51.173401 15.512641 25.269643 67.949930 0.437100 4.242200 11.759100 22.500695 -6.189409 -12.069567 -20.523966 -4.977753 -24.696315 16.640138 -3.511578 32.572251 7.544250 -58.521224 32.050533 -6.824900 -15.182700 48.209100 4.641137 1.423889 24.047435 0.408411 0.596454 1.287512 -4.152215 1.210198 3.983612 4.187234 10.128172 0.341326 3.886254 12.313511 11.567927 -4.140600 6.906600 4.104000 0.148143 -6.978519 0.809273 -80.402143 -15.183561 56.237115 36.356931 -37.753358 -27.331539 -0.318932 -8.997950 18.186317 0.236391 25.501399 -1.151700 -7.125000 0.000000 0.000000 -39.612600 59.525600 -15.519200 4.034565 8.270771 0.573602 79.369670 14.254559 34.470031 -29.531909 34.921866 -23.541994 -2.755214 -1.046406 18.058280 1.856557 19.023840 1.466200 7.125000 0.000000 0.000000 20.553300 -10.053600 17.872100 
22.377531 15.919465 12.306510 20.022159 -84.260697 -52.844732 -16.432562 -12.320073 7.859213 13.856958 -9.496494 -30.150924 -14.820038 -21.052866 50.991227 15.307419 25.908179 68.020320 0.613700 5.013900 13.948300 22.668822 -3.059865 -10.068110 -21.572711 -5.869345 -25.481578 17.441754 2.398081 38.327903 -0.374505 -58.150978 41.636885 -4.625000 -12.948700 39.176600 4.021102 1.271401 23.910250 0.237461 0.334674 1.324100 -4.096208 0.869200 3.991248 4.202564 10.132982 0.336636 3.898056 12.326262 11.560564 -4.135700 6.912100 4.096700 0.150602 -7.148771 0.826216 -80.297396 -15.248274 56.041131 36.254663 -37.705800 -27.274323 -0.258719 -8.964704 18.053802 0.097883 25.230733 -1.237300 -7.125000 0.000000 0.000000 -39.437900 59.238100 -15.159100 4.069749 8.149226 0.555314 79.461092 14.291528 34.530497 -29.456486 34.849127 -23.437390 -2.803624 -1.043635 18.224160 1.971632 19.032979 1.523800 7.125000 0.000000 0.000000 20.644600 -10.032700 17.973000 
22.344195 15.884760 12.312854 20.742092 -83.298057 -53.376104 -17.771339 -11.564312 6.560382 14.671557 -7.726103 -29.990032 -17.160118 -20.126546 50.593130 15.121617 25.343507 68.436873 0.463100 4.365000 12.105900 22.434072 -0.524637 -8.592487 -22.574778 -4.436864 -25.638679 16.843434 5.502741 41.629404 -6.389177 -53.249960 50.094879 -2.303500 -9.471500 27.281700 3.526345 1.198819 23.743205 0.055872 0.137864 1.274587 -4.127559 0.641112 4.028523 4.230519 10.115908 0.263935 3.928214 12.305412 11.567985 -4.093300 6.901000 4.115100 0.151744 -7.267541 0.840410 -80.212234 -15.318934 55.998733 36.162759 -37.653087 -27.195563 -0.279690 -8.939360 17.990322 0.223853 25.123986 -1.143400 -7.125000 0.000000 0.000000 -39.160800 59.182200 -14.977300 4.066503 8.052999 0.535193 79.592976 14.308936 34.532947 -29.484542 34.843852 -23.440241 -2.797928 -1.003419 18.175466 1.983592 18.857904 1.516300 7.125000 0.000000 0.000000 20.674900 -10.236900 17.911400 
22.338722 15.886129 12.316461 20.247933 -83.527253 -52.809536 -17.887392 -11.472306 6.468247 15.115602 -7.369065 -30.019604 -17.770869 -20.117384 50.510818 15.121339 24.479378 68.745699 0.289800 3.462100 9.568000 22.504146 -0.584707 -8.567849 -22.413383 -4.530486 -25.755484 16.927011 5.404769 41.542570 -6.212100 -53.489860 49.808781 -2.335900 -9.533200 27.477800 3.806184 1.250397 23.648895 0.099652 0.280250 1.250865 -4.230305 0.704679 4.129495 4.253301 10.050197 0.177717 3.933802 12.217884 11.601806 -4.071300 6.860000 4.148000 0.151661 -7.238381 0.840051 -80.277836 -15.394263 56.214734 36.156360 -37.647177 -27.168744 -0.304177 -8.927770 17.936532 0.366550 25.117864 -1.044200 -7.125000 0.000000 0.000000 -38.987500 59.219600 -14.933400 4.049287 8.042967 0.527136 79.521962 14.325436 34.376795 -29.584731 34.924539 -23.587949 -2.832335 -0.943067 17.912848 2.329506 18.656029 1.640200 7.125000 0.000000 0.000000 20.940200 -10.493600 18.059600 
22.364594 15.920584 12.314720 19.629182 -84.578503 -52.423868 -17.057144 -11.730605 7.134493 15.131206 -7.861633 -29.997341 -16.794240 -20.507916 50.664628 15.213737 24.881856 68.466414 0.342600 3.761200 10.405700 22.655573 -3.070778 -9.841953 -21.256301 -5.961739 -25.666513 17.569709 2.449820 38.351942 -0.437866 -57.964392 41.644299 -4.541300 -12.847800 38.801500 4.377897 1.402480 23.801449 0.328074 0.626160 1.343644 -4.124879 0.968685 4.190676 4.058482 9.975889 0.154646 3.944770 12.111312 11.621455 -4.021000 6.801800 4.130200 0.140896 -7.121329 0.816107 -80.513435 -15.425182 56.508297 36.231195 -37.678256 -27.183752 -0.358189 -8.947868 18.001394 0.516574 25.336988 -0.945300 -7.125000 0.000000 0.000000 -39.075100 59.463400 -15.207000 4.048635 8.122079 0.534293 79.221068 14.343516 34.101195 -29.578147 34.946595 -23.649535 -2.848586 -0.959403 17.920598 2.426980 18.749151 1.686600 7.125000 0.000000 0.000000 20.994700 -10.390300 18.161800 
22.442337 16.002058 12.306759 20.036337 -85.547694 -53.152568 -15.802030 -11.926489 8.345196 14.284741 -8.433206 -30.467768 -15.334597 -20.824402 50.787562 15.301590 25.960902 67.964991 0.496700 4.518600 12.540300 22.223557 -6.601877 -11.787770 -20.134143 -5.223580 -24.727687 16.499344 -4.452474 31.844665 7.923588 -57.352152 31.685452 -7.184400 -15.485200 49.568200 4.728935 1.520885 24.077663 0.504345 0.786964 1.433279 -3.940530 1.251554 4.168651 3.790903 9.967908 0.201520 3.965900 12.092062 11.593925 -3.957300 6.779500 4.058500 0.118517 -6.973610 0.788714 -80.664858 -15.373055 56.577270 36.320700 -37.717558 -27.235410 -0.393077 -8.974520 18.027612 0.596562 25.541263 -0.892600 -7.125000 0.000000 0.000000 -39.231400 59.675900 -15.483700 4.027638 8.233275 0.552764 78.984867 14.261202 34.183141 -29.615563 35.012381 -23.708564 -2.779926 -1.024923 17.881729 2.119670 18.990773 1.569000 7.125000 0.000000 0.000000 20.736600 -10.113800 18.028900 
22.434873 15.995590 12.308003 20.186480 -85.308170 -53.212563 -15.319547 -12.500156 8.901337 13.258352 -9.816039 -30.619794 -13.618825 -21.409747 51.014073 15.416604 26.146849 67.709663 0.533300 4.679600 12.996900 22.370104 -6.328257 -11.855757 -20.396434 -5.467380 -24.770782 16.508793 -3.756832 32.512063 7.048855 -57.498619 32.663608 -6.858000 -15.211200 48.335300 4.595914 1.460313 23.944359 0.414024 0.620197 1.422988 -3.969678 1.200938 4.235176 3.793366 10.018362 0.161912 4.008891 12.158507 11.598768 -3.911200 6.811400 4.057200 0.102083 -6.968983 0.791450 -80.531691 -15.384811 56.432859 36.321096 -37.727699 -27.267412 -0.364872 -8.988729 17.922948 0.528308 25.537642 -0.939900 -7.125000 0.000000 0.000000 -39.315300 59.659400 -15.507600 4.012466 8.209903 0.556651 79.003136 14.267194 34.479874 -29.702065 35.087475 -23.764707 -2.720480 -1.073115 17.694984 1.891664 19.166657 1.477700 7.125000 0.000000 0.000000 20.545400 -9.919600 17.924000 
